<?xml version="1.0" encoding="utf-8"?>
<!-- Generator: Adobe Illustrator 24.1.3, SVG Export Plug-In . SVG Version: 6.00 Build 0)  -->
<svg version="1.1" id="Layer_1" xmlns="http://www.w3.org/2000/svg" xmlns:xlink="http://www.w3.org/1999/xlink" x="0px" y="0px"
	 viewBox="0 0 1490.29 1500" enable-background="new 0 0 1490.29 1500" xml:space="preserve">
<g>
	<circle fill="#E5D6C3" cx="745.14" cy="750" r="677.72"/>
	<g>
		<path d="M459.32,894.25c0,1.01-0.37,1.87-1.1,2.57c-0.7,0.73-1.57,1.1-2.62,1.1c-1.01,0-1.87-0.37-2.57-1.1
			c-0.73-0.7-1.1-1.55-1.1-2.57v-15.87h-28.5v15.87c0,1.01-0.37,1.87-1.1,2.57c-0.7,0.73-1.57,1.1-2.62,1.1
			c-1.01,0-1.87-0.37-2.57-1.1c-0.73-0.7-1.1-1.55-1.1-2.57v-49.03c0-5.97,2.11-11.07,6.34-15.3c4.22-4.22,9.32-6.34,15.3-6.34
			c5.97,0,11.07,2.11,15.29,6.34c4.23,4.23,6.34,9.32,6.34,15.3V894.25z M451.94,871v-25.77c0-3.95-1.38-7.32-4.14-10.11
			c-2.79-2.76-6.16-4.14-10.11-4.14c-3.91,0-7.26,1.38-10.06,4.14c-2.79,2.79-4.19,6.16-4.19,10.11V871H451.94z"/>
		<path d="M592.81,828.62c0-1.05,0.37-1.92,1.1-2.62c0.7-0.73,1.55-1.1,2.57-1.1c1.05,0,1.92,0.37,2.62,1.1
			c0.73,0.7,1.1,1.57,1.1,2.62V871h23.68v-42.38c0-1.05,0.37-1.92,1.1-2.62c0.7-0.73,1.55-1.1,2.57-1.1c1.05,0,1.92,0.37,2.62,1.1
			c0.73,0.7,1.1,1.57,1.1,2.62v65.63c0,1.01-0.37,1.87-1.1,2.57c-0.7,0.73-1.57,1.1-2.62,1.1c-1.01,0-1.87-0.37-2.57-1.1
			c-0.73-0.7-1.1-1.55-1.1-2.57v-15.87H600.2v15.87c0,1.01-0.37,1.87-1.1,2.57c-0.7,0.73-1.57,1.1-2.62,1.1
			c-1.01,0-1.87-0.37-2.57-1.1c-0.73-0.7-1.1-1.55-1.1-2.57V828.62z"/>
		<path d="M668.14,823.64c5.97,0,11.07,2.11,15.29,6.34c4.23,4.23,6.34,9.32,6.34,15.29v32.16c0,5.97-2.11,11.07-6.34,15.3
			c-4.23,4.23-9.32,6.34-15.29,6.34c-5.97,0-11.07-2.11-15.3-6.34c-4.23-4.23-6.34-9.32-6.34-15.3v-32.16
			c0-5.97,2.11-11.07,6.34-15.29C657.07,825.76,662.17,823.64,668.14,823.64z M682.39,845.28c0-3.95-1.38-7.32-4.14-10.11
			c-2.79-2.79-6.16-4.19-10.11-4.19c-3.91,0-7.26,1.4-10.06,4.19c-2.79,2.79-4.19,6.16-4.19,10.11v32.16c0,3.91,1.4,7.26,4.19,10.06
			c2.79,2.79,6.15,4.19,10.06,4.19c3.95,0,7.31-1.4,10.11-4.19c2.76-2.79,4.14-6.15,4.14-10.06V845.28z"/>
		<path d="M727.91,823.64c5.97,0,11.07,2.11,15.29,6.34c4.23,4.23,6.34,9.32,6.34,15.29v0.94c0,1.01-0.35,1.87-1.05,2.57
			c-0.73,0.73-1.61,1.1-2.62,1.1c-1.01,0-1.89-0.37-2.62-1.1c-0.73-0.7-1.1-1.55-1.1-2.57v-0.94c0-3.91-1.38-7.26-4.14-10.06
			c-2.79-2.79-6.16-4.19-10.11-4.19c-3.91,0-7.26,1.4-10.06,4.19c-2.79,2.79-4.19,6.15-4.19,10.06v32.16c0,3.95,1.4,7.32,4.19,10.11
			c2.79,2.79,6.15,4.19,10.06,4.19c3.95,0,7.31-1.4,10.11-4.19c2.76-2.79,4.14-6.16,4.14-10.11v-0.89c0-1.01,0.37-1.89,1.1-2.62
			c0.73-0.73,1.61-1.1,2.62-1.1c1.01,0,1.89,0.37,2.62,1.1c0.7,0.73,1.05,1.61,1.05,2.62v0.89c0,5.97-2.11,11.07-6.34,15.3
			c-4.23,4.23-9.32,6.34-15.29,6.34c-5.97,0-11.07-2.11-15.3-6.34c-4.23-4.23-6.34-9.32-6.34-15.3v-32.16
			c0-5.97,2.11-11.07,6.34-15.29C716.83,825.76,721.93,823.64,727.91,823.64z"/>
		<path d="M786.44,823.64c5.97,0,11.07,2.11,15.29,6.34s6.34,9.32,6.34,15.29v32.16c0,5.97-2.11,11.07-6.34,15.3
			s-9.32,6.34-15.29,6.34s-11.07-2.11-15.3-6.34s-6.34-9.32-6.34-15.3v-32.16c0-5.97,2.11-11.07,6.34-15.29
			S780.47,823.64,786.44,823.64z M800.69,845.28c0-3.95-1.38-7.32-4.14-10.11c-2.79-2.79-6.16-4.19-10.11-4.19
			c-3.91,0-7.26,1.4-10.06,4.19s-4.19,6.16-4.19,10.11v32.16c0,3.91,1.4,7.26,4.19,10.06s6.15,4.19,10.06,4.19
			c3.95,0,7.32-1.4,10.11-4.19c2.76-2.79,4.14-6.15,4.14-10.06V845.28z"/>
		<path d="M827.76,897.92c-1.01,0-1.87-0.37-2.57-1.1c-0.73-0.7-1.1-1.55-1.1-2.57v-65.74c0-1.01,0.37-1.89,1.1-2.62
			c0.7-0.7,1.55-1.05,2.57-1.05c1.05,0,1.92,0.35,2.62,1.05c0.73,0.73,1.1,1.61,1.1,2.62v62.02h20.22c1.01,0,1.89,0.37,2.62,1.1
			c0.73,0.7,1.1,1.57,1.1,2.62c0,1.01-0.37,1.87-1.1,2.57c-0.73,0.73-1.61,1.1-2.62,1.1H827.76z"/>
		<path d="M914.1,894.25c0,1.01-0.37,1.87-1.1,2.57c-0.7,0.73-1.57,1.1-2.62,1.1c-1.01,0-1.87-0.37-2.57-1.1
			c-0.73-0.7-1.1-1.55-1.1-2.57v-15.87h-28.5v15.87c0,1.01-0.37,1.87-1.1,2.57c-0.7,0.73-1.57,1.1-2.62,1.1
			c-1.01,0-1.87-0.37-2.57-1.1c-0.73-0.7-1.1-1.55-1.1-2.57v-49.03c0-5.97,2.11-11.07,6.34-15.3c4.23-4.22,9.32-6.34,15.3-6.34
			s11.07,2.11,15.29,6.34c4.23,4.23,6.34,9.32,6.34,15.3V894.25z M906.71,871v-25.77c0-3.95-1.38-7.32-4.14-10.11
			c-2.79-2.76-6.16-4.14-10.11-4.14c-3.91,0-7.26,1.38-10.06,4.14c-2.79,2.79-4.19,6.16-4.19,10.11V871H906.71z"/>
		<path d="M952.2,832.29v61.97c0,1.01-0.37,1.87-1.1,2.57c-0.66,0.73-1.52,1.1-2.57,1.1c-1.05,0-1.92-0.37-2.62-1.1
			c-0.7-0.7-1.05-1.55-1.05-2.57v-61.97h-13.51c-1.08,0-1.96-0.37-2.62-1.1c-0.77-0.7-1.15-1.55-1.15-2.57
			c0-1.01,0.38-1.89,1.15-2.62c0.66-0.73,1.54-1.1,2.62-1.1h34.42c1.05,0,1.92,0.37,2.62,1.1c0.73,0.7,1.1,1.57,1.1,2.62
			s-0.37,1.9-1.1,2.57c-0.7,0.73-1.57,1.1-2.62,1.1H952.2z"/>
		<path d="M992.3,832.29V871h19.7c1.01,0,1.89,0.37,2.62,1.1c0.73,0.7,1.1,1.55,1.1,2.57c0,1.05-0.37,1.92-1.1,2.62
			c-0.73,0.73-1.61,1.1-2.62,1.1h-19.7v12.15h19.7c1.01,0,1.89,0.37,2.62,1.1c0.73,0.7,1.1,1.57,1.1,2.62c0,1.01-0.37,1.87-1.1,2.57
			c-0.73,0.73-1.61,1.1-2.62,1.1h-23.41c-1.01,0-1.87-0.37-2.57-1.1c-0.73-0.7-1.1-1.55-1.1-2.57v-65.69c0-1.01,0.37-1.87,1.1-2.57
			c0.7-0.73,1.55-1.1,2.57-1.1H1012c1.01,0,1.89,0.37,2.62,1.1c0.73,0.7,1.1,1.55,1.1,2.57c0,1.05-0.37,1.92-1.1,2.62
			c-0.73,0.73-1.61,1.1-2.62,1.1H992.3z"/>
		<path d="M1031.97,828.62c0-2.44,1.19-3.67,3.56-3.67h16.92c5.97,0,11.07,2.11,15.29,6.34c4.22,4.23,6.34,9.32,6.34,15.29v6.86
			c0,4.43-1.26,8.49-3.77,12.15c-2.41,3.56-5.6,6.16-9.58,7.8l9.48,18.96l0.26,0.52c0.42,0.91,0.45,1.83,0.11,2.78
			c-0.31,0.98-0.94,1.69-1.89,2.15c-0.91,0.42-1.83,0.45-2.78,0.1c-0.98-0.31-1.68-0.92-2.1-1.83l-0.31-0.58l-10.21-20.43h-13.93
			v19.17c0,1.01-0.37,1.87-1.1,2.57c-0.7,0.73-1.57,1.1-2.62,1.1c-1.01,0-1.87-0.37-2.57-1.1c-0.73-0.7-1.1-1.55-1.1-2.57V828.62z
			 M1066.7,846.59c0-3.95-1.4-7.32-4.19-10.11s-6.15-4.19-10.06-4.19h-13.1v35.41h13.1c3.91,0,7.26-1.4,10.06-4.19
			c2.79-2.79,4.19-6.15,4.19-10.06V846.59z"/>
		<path d="M1097.48,894.25c0,1.01-0.37,1.87-1.1,2.57c-0.7,0.73-1.57,1.1-2.62,1.1c-1.01,0-1.87-0.37-2.57-1.1
			c-0.73-0.7-1.1-1.55-1.1-2.57v-65.63c0-1.05,0.37-1.92,1.1-2.62c0.7-0.73,1.55-1.1,2.57-1.1c1.05,0,1.92,0.37,2.62,1.1
			c0.73,0.7,1.1,1.57,1.1,2.62V894.25z"/>
		<path d="M1120.66,832.29V871h19.7c1.01,0,1.89,0.37,2.62,1.1c0.73,0.7,1.1,1.55,1.1,2.57c0,1.05-0.37,1.92-1.1,2.62
			c-0.73,0.73-1.61,1.1-2.62,1.1h-19.7v12.15h19.7c1.01,0,1.89,0.37,2.62,1.1c0.73,0.7,1.1,1.57,1.1,2.62c0,1.01-0.37,1.87-1.1,2.57
			c-0.73,0.73-1.61,1.1-2.62,1.1h-23.41c-1.01,0-1.87-0.37-2.57-1.1c-0.73-0.7-1.1-1.55-1.1-2.57v-65.69c0-1.01,0.37-1.87,1.1-2.57
			c0.7-0.73,1.55-1.1,2.57-1.1h23.41c1.01,0,1.89,0.37,2.62,1.1c0.73,0.7,1.1,1.55,1.1,2.57c0,1.05-0.37,1.92-1.1,2.62
			c-0.73,0.73-1.61,1.1-2.62,1.1H1120.66z"/>
		<path d="M337.68,953.63c5.97,0,11.07,2.11,15.3,6.34c4.23,4.23,6.34,9.32,6.34,15.29v29.75c0,5.55-1.87,10.39-5.6,14.51
			c-3.74,4.12-8.35,6.46-13.83,7.02c-0.31,0.07-0.59,0.1-0.84,0.1h-18.18c-1.01,0-1.87-0.37-2.57-1.1c-0.73-0.7-1.1-1.55-1.1-2.57
			V957.3c0-1.01,0.37-1.87,1.1-2.57c0.7-0.73,1.55-1.1,2.57-1.1H337.68z M351.93,975.27c0-3.91-1.4-7.26-4.19-10.06
			c-2.79-2.79-6.15-4.19-10.06-4.19h-13.1v58.25h13.1c3.91,0,7.26-1.4,10.06-4.19c2.79-2.76,4.19-6.11,4.19-10.06V975.27z"/>
		<path d="M375.1,957.35c0-1.05,0.37-1.92,1.1-2.62c0.7-0.73,1.55-1.1,2.57-1.1c1.05,0,1.92,0.37,2.62,1.1
			c0.73,0.7,1.1,1.57,1.1,2.62v48.77c0,3.91,1.4,7.26,4.19,10.06c2.79,2.79,6.15,4.19,10.06,4.19c3.95,0,7.31-1.4,10.11-4.19
			c2.76-2.79,4.14-6.15,4.14-10.06v-48.77c0-1.05,0.37-1.92,1.1-2.62c0.7-0.73,1.55-1.1,2.57-1.1c1.05,0,1.92,0.37,2.62,1.1
			c0.73,0.7,1.1,1.57,1.1,2.62v48.77c0,5.97-2.11,11.07-6.34,15.29c-4.23,4.23-9.32,6.34-15.29,6.34c-5.97,0-11.07-2.11-15.3-6.34
			c-4.23-4.22-6.34-9.32-6.34-15.29V957.35z"/>
		<path d="M587.85,1022.99c0,1.01-0.37,1.87-1.1,2.57c-0.7,0.73-1.57,1.1-2.62,1.1c-1.01,0-1.87-0.37-2.57-1.1
			c-0.73-0.7-1.1-1.55-1.1-2.57v-15.87h-28.5v15.87c0,1.01-0.37,1.87-1.1,2.57c-0.7,0.73-1.57,1.1-2.62,1.1
			c-1.01,0-1.87-0.37-2.57-1.1c-0.73-0.7-1.1-1.55-1.1-2.57v-49.03c0-5.97,2.11-11.07,6.34-15.3c4.22-4.22,9.32-6.34,15.3-6.34
			c5.97,0,11.07,2.11,15.29,6.34c4.23,4.23,6.34,9.32,6.34,15.3V1022.99z M580.47,999.73v-25.77c0-3.95-1.38-7.32-4.14-10.11
			c-2.79-2.76-6.16-4.14-10.11-4.14c-3.91,0-7.26,1.38-10.06,4.14c-2.79,2.79-4.19,6.16-4.19,10.11v25.77H580.47z"/>
		<path d="M603.6,957.35c0-1.05,0.37-1.92,1.1-2.62c0.7-0.73,1.55-1.1,2.57-1.1c1.05,0,1.92,0.37,2.62,1.1
			c0.73,0.7,1.1,1.57,1.1,2.62v48.77c0,3.91,1.4,7.26,4.19,10.06c2.79,2.79,6.15,4.19,10.06,4.19c3.95,0,7.31-1.4,10.11-4.19
			c2.76-2.79,4.14-6.15,4.14-10.06v-48.77c0-1.05,0.37-1.92,1.1-2.62c0.7-0.73,1.55-1.1,2.57-1.1c1.05,0,1.92,0.37,2.62,1.1
			c0.73,0.7,1.1,1.57,1.1,2.62v48.77c0,5.97-2.11,11.07-6.34,15.29c-4.23,4.23-9.32,6.34-15.29,6.34c-5.97,0-11.07-2.11-15.3-6.34
			c-4.23-4.22-6.34-9.32-6.34-15.29V957.35z"/>
		<path d="M687.98,961.02v61.97c0,1.01-0.37,1.87-1.1,2.57c-0.66,0.73-1.52,1.1-2.57,1.1c-1.05,0-1.92-0.37-2.62-1.1
			c-0.7-0.7-1.05-1.55-1.05-2.57v-61.97h-13.51c-1.08,0-1.96-0.37-2.62-1.1c-0.77-0.7-1.15-1.55-1.15-2.57
			c0-1.01,0.38-1.89,1.15-2.62c0.66-0.73,1.54-1.1,2.62-1.1h34.42c1.05,0,1.92,0.37,2.62,1.1c0.73,0.7,1.1,1.57,1.1,2.62
			s-0.37,1.9-1.1,2.57c-0.7,0.73-1.57,1.1-2.62,1.1H687.98z"/>
		<path d="M725.76,979.44c-1.52,0-2.76-0.53-3.71-1.59c-1.06-1.01-1.59-2.27-1.59-3.79c0-1.47,0.53-2.7,1.59-3.71
			c0.96-1.06,2.2-1.59,3.71-1.59h31.98c1.52,0,2.78,0.53,3.79,1.59c1.06,1.01,1.59,2.25,1.59,3.71c0,1.52-0.53,2.78-1.59,3.79
			c-1.01,1.06-2.27,1.59-3.79,1.59H725.76z M725.76,979.44c-1.52,0-2.76-0.53-3.71-1.59c-1.06-1.01-1.59-2.27-1.59-3.79
			c0-1.47,0.53-2.7,1.59-3.71c0.96-1.06,2.2-1.59,3.71-1.59h31.98c1.52,0,2.78,0.53,3.79,1.59c1.06,1.01,1.59,2.25,1.59,3.71
			c0,1.52-0.53,2.78-1.59,3.79c-1.01,1.06-2.27,1.59-3.79,1.59H725.76z"/>
		<path d="M874.55,1026.65c-1.01,0-1.87-0.37-2.57-1.1c-0.73-0.7-1.1-1.55-1.1-2.57v-65.74c0-1.01,0.37-1.89,1.1-2.62
			c0.7-0.7,1.55-1.05,2.57-1.05c1.05,0,1.92,0.35,2.62,1.05c0.73,0.73,1.1,1.61,1.1,2.62v62.02h20.22c1.01,0,1.89,0.37,2.62,1.1
			c0.73,0.7,1.1,1.57,1.1,2.62c0,1.01-0.37,1.87-1.1,2.57c-0.73,0.73-1.61,1.1-2.62,1.1H874.55z"/>
		<path d="M935.44,952.38c5.97,0,11.07,2.11,15.29,6.34s6.34,9.32,6.34,15.29v32.16c0,5.97-2.11,11.07-6.34,15.3
			c-4.23,4.23-9.32,6.34-15.29,6.34s-11.07-2.11-15.3-6.34c-4.23-4.23-6.34-9.32-6.34-15.3v-32.16c0-5.97,2.11-11.07,6.34-15.29
			S929.47,952.38,935.44,952.38z M949.69,974.01c0-3.95-1.38-7.32-4.14-10.11c-2.79-2.79-6.16-4.19-10.11-4.19
			c-3.91,0-7.26,1.4-10.06,4.19s-4.19,6.16-4.19,10.11v32.16c0,3.91,1.4,7.26,4.19,10.06s6.15,4.19,10.06,4.19
			c3.95,0,7.32-1.4,10.11-4.19c2.76-2.79,4.14-6.15,4.14-10.06V974.01z"/>
		<path d="M994.48,952.38c5.97,0,11.07,2.11,15.29,6.34s6.34,9.32,6.34,15.29v0.94c0,1.01-0.35,1.87-1.05,2.57
			c-0.73,0.73-1.61,1.1-2.62,1.1c-1.01,0-1.89-0.37-2.62-1.1c-0.73-0.7-1.1-1.55-1.1-2.57v-0.94c0-3.91-1.38-7.26-4.14-10.06
			c-2.79-2.79-6.16-4.19-10.11-4.19c-3.91,0-7.26,1.4-10.06,4.19s-4.19,6.15-4.19,10.06v32.16c0,3.95,1.4,7.32,4.19,10.11
			s6.15,4.19,10.06,4.19c3.95,0,7.32-1.4,10.11-4.19c2.76-2.79,4.14-6.16,4.14-10.11v-0.89c0-1.01,0.37-1.89,1.1-2.62
			c0.73-0.73,1.61-1.1,2.62-1.1c1.01,0,1.89,0.37,2.62,1.1c0.7,0.73,1.05,1.61,1.05,2.62v0.89c0,5.97-2.11,11.07-6.34,15.3
			c-4.23,4.23-9.32,6.34-15.29,6.34s-11.07-2.11-15.3-6.34c-4.23-4.23-6.34-9.32-6.34-15.3v-32.16c0-5.97,2.11-11.07,6.34-15.29
			S988.51,952.38,994.48,952.38z"/>
		<path d="M1032.25,957.35c0-1.05,0.37-1.92,1.1-2.62c0.7-0.73,1.55-1.1,2.57-1.1c1.05,0,1.92,0.37,2.62,1.1
			c0.73,0.7,1.1,1.57,1.1,2.62v42.38h23.68v-42.38c0-1.05,0.37-1.92,1.1-2.62c0.7-0.73,1.55-1.1,2.57-1.1c1.05,0,1.92,0.37,2.62,1.1
			c0.73,0.7,1.1,1.57,1.1,2.62v65.63c0,1.01-0.37,1.87-1.1,2.57c-0.7,0.73-1.57,1.1-2.62,1.1c-1.01,0-1.87-0.37-2.57-1.1
			c-0.73-0.7-1.1-1.55-1.1-2.57v-15.87h-23.68v15.87c0,1.01-0.37,1.87-1.1,2.57c-0.7,0.73-1.57,1.1-2.62,1.1
			c-1.01,0-1.87-0.37-2.57-1.1c-0.73-0.7-1.1-1.55-1.1-2.57V957.35z"/>
		<path d="M1093.22,961.02v38.71h19.7c1.01,0,1.89,0.37,2.62,1.1c0.73,0.7,1.1,1.55,1.1,2.57c0,1.05-0.37,1.92-1.1,2.62
			c-0.73,0.73-1.61,1.1-2.62,1.1h-19.7v12.15h19.7c1.01,0,1.89,0.37,2.62,1.1c0.73,0.7,1.1,1.57,1.1,2.62c0,1.01-0.37,1.87-1.1,2.57
			c-0.73,0.73-1.61,1.1-2.62,1.1h-23.41c-1.01,0-1.87-0.37-2.57-1.1c-0.73-0.7-1.1-1.55-1.1-2.57V957.3c0-1.01,0.37-1.87,1.1-2.57
			c0.7-0.73,1.55-1.1,2.57-1.1h23.41c1.01,0,1.89,0.37,2.62,1.1c0.73,0.7,1.1,1.55,1.1,2.57c0,1.05-0.37,1.92-1.1,2.62
			c-0.73,0.73-1.61,1.1-2.62,1.1H1093.22z"/>
		<path d="M1134.01,957.35c0-2.44,1.19-3.67,3.56-3.67h16.92c5.97,0,11.07,2.11,15.29,6.34c4.22,4.23,6.34,9.32,6.34,15.29v6.86
			c0,4.43-1.26,8.49-3.77,12.15c-2.41,3.56-5.6,6.16-9.58,7.8l9.48,18.96l0.26,0.52c0.42,0.91,0.45,1.83,0.11,2.78
			c-0.31,0.98-0.94,1.69-1.89,2.15c-0.91,0.42-1.83,0.45-2.78,0.1c-0.98-0.31-1.68-0.92-2.1-1.83l-0.31-0.58l-10.21-20.43h-13.93
			v19.17c0,1.01-0.37,1.87-1.1,2.57c-0.7,0.73-1.57,1.1-2.62,1.1c-1.01,0-1.87-0.37-2.57-1.1c-0.73-0.7-1.1-1.55-1.1-2.57V957.35z
			 M1168.74,975.32c0-3.95-1.4-7.32-4.19-10.11s-6.15-4.19-10.06-4.19h-13.1v35.41h13.1c3.91,0,7.26-1.4,10.06-4.19
			c2.79-2.79,4.19-6.15,4.19-10.06V975.32z"/>
		<path d="M355.34,1080.45c0.9,0.26,1.58,0.79,2.03,1.59c0.48,0.84,0.6,1.71,0.34,2.61l-17.15,60.78c-0.48,1.64-1.58,2.46-3.29,2.46
			c-1.74,0-2.83-0.82-3.29-2.46l-17.01-60.39c-0.26-0.9-0.16-1.77,0.29-2.61c0.45-0.81,1.14-1.34,2.08-1.59
			c0.9-0.26,1.76-0.16,2.56,0.29c0.8,0.48,1.34,1.18,1.59,2.08l13.77,48.75l13.87-49.14c0.26-0.9,0.79-1.59,1.59-2.08
			C353.56,1080.29,354.43,1080.19,355.34,1080.45z"/>
		<path d="M378.01,1144.41c0,0.93-0.34,1.72-1.01,2.37c-0.64,0.68-1.45,1.01-2.42,1.01c-0.93,0-1.72-0.34-2.37-1.01
			c-0.68-0.64-1.01-1.43-1.01-2.37v-60.54c0-0.97,0.34-1.77,1.01-2.42c0.64-0.68,1.43-1.01,2.37-1.01c0.97,0,1.77,0.34,2.42,1.01
			c0.68,0.64,1.01,1.45,1.01,2.42V1144.41z"/>
		<path d="M398.18,1144.41c0,0.93-0.34,1.72-1.01,2.37c-0.64,0.68-1.45,1.01-2.42,1.01c-0.93,0-1.72-0.34-2.37-1.01
			c-0.68-0.64-1.01-1.43-1.01-2.37v-60.97c0-0.77,0.24-1.48,0.72-2.13c0.51-0.61,1.14-1,1.88-1.16c0.77-0.19,1.53-0.13,2.27,0.19
			c0.71,0.35,1.24,0.89,1.59,1.6l24.35,47.59v-36.04h0.05v-9.61c0-0.97,0.34-1.77,1.01-2.42c0.64-0.68,1.43-1.01,2.37-1.01
			c0.97,0,1.77,0.34,2.42,1.01c0.68,0.64,1.01,1.45,1.01,2.42v60.34c0,0.81-0.24,1.51-0.72,2.13c-0.48,0.61-1.11,1.01-1.88,1.21
			c-0.77,0.19-1.51,0.11-2.22-0.24c-0.71-0.32-1.24-0.84-1.59-1.55l-24.45-47.73V1144.41z"/>
		<path d="M461.97,1079.29c5.51,0,10.21,1.95,14.11,5.85c3.9,3.9,5.85,8.6,5.85,14.11v0.87c0,0.93-0.32,1.72-0.97,2.37
			c-0.68,0.68-1.48,1.01-2.42,1.01c-0.93,0-1.74-0.34-2.42-1.01c-0.68-0.64-1.01-1.43-1.01-2.37v-0.87c0-3.61-1.27-6.7-3.82-9.28
			c-2.58-2.58-5.68-3.87-9.32-3.87c-3.61,0-6.7,1.29-9.28,3.87c-2.58,2.58-3.86,5.67-3.86,9.28v29.66c0,3.64,1.29,6.75,3.86,9.33
			c2.58,2.58,5.67,3.86,9.28,3.86c3.64,0,6.75-1.29,9.32-3.86c2.54-2.58,3.82-5.68,3.82-9.33v-0.82c0-0.93,0.34-1.74,1.01-2.42
			c0.68-0.68,1.48-1.01,2.42-1.01c0.93,0,1.74,0.34,2.42,1.01c0.64,0.68,0.97,1.48,0.97,2.42v0.82c0,5.51-1.95,10.21-5.85,14.11
			c-3.9,3.9-8.6,5.85-14.11,5.85c-5.51,0-10.21-1.95-14.11-5.85c-3.9-3.9-5.85-8.6-5.85-14.11v-29.66c0-5.51,1.95-10.21,5.85-14.11
			C451.76,1081.24,456.46,1079.29,461.97,1079.29z"/>
		<path d="M501.17,1087.26v35.7h18.17c0.93,0,1.74,0.34,2.42,1.01c0.68,0.65,1.01,1.43,1.01,2.37c0,0.97-0.34,1.77-1.01,2.42
			c-0.68,0.68-1.48,1.02-2.42,1.02h-18.17v11.21h18.17c0.93,0,1.74,0.34,2.42,1.01c0.68,0.65,1.01,1.45,1.01,2.42
			c0,0.93-0.34,1.72-1.01,2.37c-0.68,0.68-1.48,1.01-2.42,1.01h-21.6c-0.93,0-1.72-0.34-2.37-1.01c-0.68-0.64-1.01-1.43-1.01-2.37
			v-60.58c0-0.93,0.34-1.72,1.01-2.37c0.64-0.68,1.43-1.01,2.37-1.01h21.6c0.93,0,1.74,0.34,2.42,1.01
			c0.68,0.64,1.01,1.43,1.01,2.37c0,0.97-0.34,1.77-1.01,2.42c-0.68,0.68-1.48,1.02-2.42,1.02H501.17z"/>
		<path d="M543.04,1144.41c0,0.93-0.34,1.72-1.02,2.37c-0.64,0.68-1.45,1.01-2.42,1.01c-0.93,0-1.72-0.34-2.37-1.01
			c-0.68-0.64-1.01-1.43-1.01-2.37v-60.97c0-0.77,0.24-1.48,0.72-2.13c0.51-0.61,1.14-1,1.88-1.16c0.77-0.19,1.53-0.13,2.27,0.19
			c0.71,0.35,1.24,0.89,1.59,1.6l24.35,47.59v-36.04h0.05v-9.61c0-0.97,0.34-1.77,1.01-2.42c0.64-0.68,1.43-1.01,2.37-1.01
			c0.97,0,1.77,0.34,2.42,1.01c0.68,0.64,1.01,1.45,1.01,2.42v60.34c0,0.81-0.24,1.51-0.72,2.13c-0.48,0.61-1.11,1.01-1.88,1.21
			c-0.77,0.19-1.52,0.11-2.22-0.24c-0.71-0.32-1.24-0.84-1.59-1.55l-24.45-47.73V1144.41z"/>
		<path d="M609.05,1087.26v57.15c0,0.93-0.34,1.72-1.01,2.37c-0.61,0.68-1.4,1.01-2.37,1.01c-0.97,0-1.77-0.34-2.41-1.01
			c-0.64-0.64-0.97-1.43-0.97-2.37v-57.15h-12.47c-1,0-1.8-0.34-2.42-1.02c-0.71-0.64-1.06-1.43-1.06-2.37
			c0-0.93,0.35-1.74,1.06-2.42c0.61-0.68,1.42-1.01,2.42-1.01h31.74c0.97,0,1.77,0.34,2.42,1.01c0.68,0.64,1.01,1.45,1.01,2.42
			s-0.34,1.76-1.01,2.37c-0.64,0.68-1.45,1.02-2.42,1.02H609.05z"/>
		<path d="M690.7,1080.45c0.9,0.26,1.58,0.79,2.03,1.59c0.48,0.84,0.6,1.71,0.34,2.61l-17.15,60.78c-0.48,1.64-1.58,2.46-3.29,2.46
			c-1.74,0-2.83-0.82-3.28-2.46l-17.01-60.39c-0.26-0.9-0.16-1.77,0.29-2.61c0.45-0.81,1.14-1.34,2.08-1.59
			c0.9-0.26,1.76-0.16,2.56,0.29c0.81,0.48,1.34,1.18,1.59,2.08l13.77,48.75l13.87-49.14c0.26-0.9,0.79-1.59,1.59-2.08
			C688.93,1080.29,689.8,1080.19,690.7,1080.45z"/>
		<path d="M742.93,1144.41c0,0.93-0.34,1.72-1.02,2.37c-0.64,0.68-1.45,1.01-2.42,1.01c-0.93,0-1.72-0.34-2.37-1.01
			c-0.68-0.64-1.02-1.43-1.02-2.37v-14.64h-26.28v14.64c0,0.93-0.34,1.72-1.01,2.37c-0.64,0.68-1.45,1.01-2.42,1.01
			c-0.93,0-1.72-0.34-2.37-1.01c-0.68-0.64-1.01-1.43-1.01-2.37v-45.22c0-5.51,1.95-10.21,5.85-14.11c3.9-3.9,8.6-5.85,14.11-5.85
			s10.21,1.95,14.11,5.85c3.9,3.9,5.85,8.6,5.85,14.11V1144.41z M736.12,1122.96v-23.77c0-3.64-1.27-6.75-3.82-9.33
			c-2.58-2.54-5.69-3.82-9.32-3.82c-3.61,0-6.7,1.27-9.28,3.82c-2.58,2.58-3.86,5.69-3.86,9.33v23.77H736.12z"/>
		<path d="M763.75,1144.41c0,0.93-0.34,1.72-1.01,2.37c-0.64,0.68-1.45,1.01-2.42,1.01c-0.93,0-1.72-0.34-2.37-1.01
			c-0.68-0.64-1.01-1.43-1.01-2.37v-60.97c0-0.77,0.24-1.48,0.73-2.13c0.51-0.61,1.14-1,1.88-1.16c0.77-0.19,1.53-0.13,2.27,0.19
			c0.71,0.35,1.24,0.89,1.59,1.6l24.35,47.59v-36.04h0.05v-9.61c0-0.97,0.34-1.77,1.02-2.42c0.64-0.68,1.43-1.01,2.37-1.01
			c0.97,0,1.77,0.34,2.42,1.01c0.68,0.64,1.01,1.45,1.01,2.42v60.34c0,0.81-0.24,1.51-0.72,2.13c-0.48,0.61-1.11,1.01-1.88,1.21
			c-0.77,0.19-1.52,0.11-2.22-0.24c-0.71-0.32-1.24-0.84-1.59-1.55l-24.45-47.73V1144.41z"/>
		<path d="M844.95,1097.94c-0.06,0.81-0.4,1.5-1.01,2.08c-0.64,0.68-1.45,1.02-2.42,1.02c-0.93,0-1.72-0.34-2.37-1.02
			c-0.61-0.58-0.95-1.27-1.01-2.08v-1.5c0-2.87-1.16-5.31-3.48-7.34c-2.35-2.03-5.17-3.04-8.46-3.04c-3.28,0-6.09,1.01-8.41,3.04
			s-3.48,4.48-3.48,7.34v3.29c0,1.13,0.26,2.29,0.77,3.48c0.81,1.87,2.37,3.37,4.69,4.49c0.93,0.45,2.06,0.89,3.38,1.3l1.79,0.53
			l1.84,0.48l1.26,0.29l1.21,0.34c5.86,1.64,10.1,4.17,12.71,7.58c2,2.61,3,5.62,3,9.04v4.4c0,4.73-1.84,8.79-5.51,12.18
			c-3.67,3.35-8.08,5.02-13.24,5.02c-5.15,0-9.55-1.67-13.19-5.02c-3.67-3.38-5.51-7.44-5.51-12.18v-4.35
			c0-0.93,0.34-1.72,1.01-2.37c0.64-0.68,1.43-1.01,2.37-1.01c0.97,0,1.77,0.34,2.42,1.01c0.68,0.64,1.01,1.43,1.01,2.37v4.35
			c0,2.87,1.16,5.31,3.48,7.34s5.12,3.04,8.41,3.04c3.29,0,6.09-1.01,8.41-3.04c2.35-2.03,3.53-4.48,3.53-7.34v-4.4
			c0-2.03-0.6-3.75-1.79-5.17c-1.67-2.06-4.65-3.69-8.94-4.88c-0.45-0.13-1.22-0.34-2.32-0.63l-1.06-0.29l-1.11-0.29
			c-0.84-0.23-1.59-0.45-2.27-0.68c-1.74-0.55-3.27-1.18-4.59-1.88c-3.45-1.84-5.86-4.36-7.25-7.58c-0.87-2.03-1.3-4.07-1.3-6.14
			v-3.29c0-4.73,1.84-8.79,5.51-12.17c3.64-3.35,8.04-5.02,13.19-5.02c5.15,0,9.57,1.68,13.24,5.02c3.67,3.38,5.51,7.44,5.51,12.17
			V1097.94z"/>
		<path d="M874.6,1087.26v57.15c0,0.93-0.34,1.72-1.01,2.37c-0.61,0.68-1.4,1.01-2.37,1.01c-0.97,0-1.77-0.34-2.41-1.01
			c-0.64-0.64-0.97-1.43-0.97-2.37v-57.15h-12.46c-1,0-1.8-0.34-2.42-1.02c-0.71-0.64-1.06-1.43-1.06-2.37
			c0-0.93,0.35-1.74,1.06-2.42c0.61-0.68,1.42-1.01,2.42-1.01h31.74c0.97,0,1.77,0.34,2.42,1.01c0.68,0.64,1.01,1.45,1.01,2.42
			s-0.34,1.76-1.01,2.37c-0.64,0.68-1.45,1.02-2.42,1.02H874.6z"/>
		<path d="M904.68,1083.88c0-2.25,1.09-3.38,3.28-3.38h15.61c5.51,0,10.21,1.95,14.11,5.85c3.9,3.9,5.85,8.6,5.85,14.11v6.33
			c0,4.09-1.16,7.83-3.48,11.21c-2.22,3.28-5.17,5.69-8.84,7.2l8.74,17.49l0.24,0.48c0.39,0.84,0.42,1.69,0.1,2.56
			c-0.29,0.9-0.87,1.56-1.74,1.98c-0.84,0.39-1.69,0.42-2.56,0.1c-0.9-0.29-1.55-0.85-1.93-1.69l-0.29-0.53l-9.42-18.84H911.5v17.68
			c0,0.93-0.34,1.72-1.01,2.37c-0.64,0.68-1.45,1.01-2.42,1.01c-0.93,0-1.72-0.34-2.37-1.01c-0.68-0.64-1.01-1.43-1.01-2.37V1083.88
			z M936.72,1100.45c0-3.64-1.29-6.75-3.86-9.32c-2.58-2.58-5.67-3.86-9.28-3.86H911.5v32.66h12.08c3.61,0,6.7-1.29,9.28-3.86
			c2.58-2.58,3.86-5.67,3.86-9.28V1100.45z"/>
		<path d="M996.43,1144.41c0,0.93-0.34,1.72-1.02,2.37c-0.64,0.68-1.45,1.01-2.42,1.01c-0.93,0-1.72-0.34-2.37-1.01
			c-0.68-0.64-1.02-1.43-1.02-2.37v-14.64h-26.28v14.64c0,0.93-0.34,1.72-1.01,2.37c-0.64,0.68-1.45,1.01-2.42,1.01
			c-0.93,0-1.72-0.34-2.37-1.01c-0.68-0.64-1.01-1.43-1.01-2.37v-45.22c0-5.51,1.95-10.21,5.85-14.11c3.9-3.9,8.6-5.85,14.11-5.85
			s10.21,1.95,14.11,5.85c3.9,3.9,5.85,8.6,5.85,14.11V1144.41z M989.62,1122.96v-23.77c0-3.64-1.27-6.75-3.82-9.33
			c-2.58-2.54-5.69-3.82-9.32-3.82c-3.61,0-6.7,1.27-9.28,3.82c-2.58,2.58-3.86,5.69-3.86,9.33v23.77H989.62z"/>
		<path d="M1015.55,1087.26v35.7h18.17c0.93,0,1.74,0.34,2.42,1.01c0.68,0.65,1.02,1.43,1.02,2.37c0,0.97-0.34,1.77-1.02,2.42
			c-0.68,0.68-1.48,1.02-2.42,1.02h-18.17v11.21h18.17c0.93,0,1.74,0.34,2.42,1.01c0.68,0.65,1.02,1.45,1.02,2.42
			c0,0.93-0.34,1.72-1.02,2.37c-0.68,0.68-1.48,1.01-2.42,1.01h-21.6c-0.93,0-1.72-0.34-2.37-1.01c-0.68-0.64-1.01-1.43-1.01-2.37
			v-60.58c0-0.93,0.34-1.72,1.01-2.37c0.64-0.68,1.43-1.01,2.37-1.01h21.6c0.93,0,1.74,0.34,2.42,1.01
			c0.68,0.64,1.02,1.43,1.02,2.37c0,0.97-0.34,1.77-1.02,2.42c-0.68,0.68-1.48,1.02-2.42,1.02H1015.55z"/>
		<path d="M1053.98,1147.8c-0.93,0-1.72-0.34-2.37-1.01c-0.68-0.64-1.01-1.43-1.01-2.37v-60.63c0-0.93,0.34-1.74,1.01-2.42
			c0.64-0.64,1.43-0.97,2.37-0.97c0.97,0,1.77,0.32,2.42,0.97c0.68,0.68,1.01,1.48,1.01,2.42v57.2h18.65c0.93,0,1.74,0.34,2.42,1.01
			c0.68,0.65,1.01,1.45,1.01,2.42c0,0.93-0.34,1.72-1.01,2.37c-0.68,0.68-1.48,1.01-2.42,1.01H1053.98z"/>
		<path d="M1098.7,1087.26v35.7h18.17c0.93,0,1.74,0.34,2.42,1.01c0.68,0.65,1.02,1.43,1.02,2.37c0,0.97-0.34,1.77-1.02,2.42
			c-0.68,0.68-1.48,1.02-2.42,1.02h-18.17v11.21h18.17c0.93,0,1.74,0.34,2.42,1.01c0.68,0.65,1.02,1.45,1.02,2.42
			c0,0.93-0.34,1.72-1.02,2.37c-0.68,0.68-1.48,1.01-2.42,1.01h-21.6c-0.93,0-1.72-0.34-2.37-1.01c-0.68-0.64-1.01-1.43-1.01-2.37
			v-60.58c0-0.93,0.34-1.72,1.01-2.37c0.64-0.68,1.43-1.01,2.37-1.01h21.6c0.93,0,1.74,0.34,2.42,1.01
			c0.68,0.64,1.02,1.43,1.02,2.37c0,0.97-0.34,1.77-1.02,2.42c-0.68,0.68-1.48,1.02-2.42,1.02H1098.7z"/>
		<path d="M1140.75,1144.41c0,0.93-0.34,1.72-1.01,2.37c-0.64,0.68-1.45,1.01-2.42,1.01c-0.93,0-1.72-0.34-2.37-1.01
			c-0.68-0.64-1.01-1.43-1.01-2.37v-60.97c0-0.77,0.24-1.48,0.73-2.13c0.51-0.61,1.14-1,1.88-1.16c0.77-0.19,1.53-0.13,2.27,0.19
			c0.71,0.35,1.24,0.89,1.59,1.6l24.35,47.59v-36.04h0.05v-9.61c0-0.97,0.34-1.77,1.02-2.42c0.64-0.68,1.43-1.01,2.37-1.01
			c0.97,0,1.77,0.34,2.42,1.01c0.68,0.64,1.01,1.45,1.01,2.42v60.34c0,0.81-0.24,1.51-0.72,2.13c-0.48,0.61-1.11,1.01-1.88,1.21
			c-0.77,0.19-1.52,0.11-2.22-0.24c-0.71-0.32-1.24-0.84-1.59-1.55l-24.45-47.73V1144.41z"/>
		<path d="M352.6,897.92c-1.44,0-2.66-0.52-3.66-1.57c-1.05-1-1.57-2.21-1.57-3.66v-93.7c0-1.44,0.52-2.69,1.57-3.73
			c0.99-1,2.21-1.49,3.66-1.49c1.49,0,2.74,0.5,3.73,1.49c1.05,1.04,1.57,2.29,1.57,3.73v88.4h28.82c1.44,0,2.69,0.52,3.73,1.57
			c1.05,1,1.57,2.24,1.57,3.73c0,1.44-0.52,2.66-1.57,3.66c-1.05,1.05-2.29,1.57-3.73,1.57H352.6z"/>
		<path d="M538.36,792.05c8.51,0,15.78,3.01,21.8,9.03c6.02,6.02,9.03,13.29,9.03,21.8v1.34c0,1.44-0.5,2.66-1.49,3.66
			c-1.04,1.04-2.29,1.57-3.73,1.57c-1.44,0-2.69-0.52-3.73-1.57c-1.05-1-1.57-2.21-1.57-3.66v-1.34c0-5.57-1.97-10.35-5.9-14.33
			c-3.98-3.98-8.79-5.97-14.41-5.97c-5.58,0-10.35,1.99-14.33,5.97c-3.98,3.98-5.97,8.76-5.97,14.33v45.84
			c0,5.62,1.99,10.43,5.97,14.41c3.98,3.98,8.76,5.97,14.33,5.97c5.62,0,10.43-1.99,14.41-5.97c3.93-3.98,5.9-8.79,5.9-14.41v-1.27
			c0-1.44,0.52-2.69,1.57-3.73c1.05-1.04,2.29-1.57,3.73-1.57c1.44,0,2.69,0.52,3.73,1.57c1,1.05,1.49,2.29,1.49,3.73v1.27
			c0,8.51-3.01,15.78-9.03,21.8c-6.02,6.02-13.29,9.03-21.8,9.03c-8.51,0-15.78-3.01-21.8-9.03c-6.02-6.02-9.03-13.29-9.03-21.8
			v-45.84c0-8.51,3.01-15.78,9.03-21.8C522.58,795.06,529.85,792.05,538.36,792.05z"/>
		<path d="M466.95,927.57c0-1.49,0.52-2.74,1.57-3.73c0.99-1.05,2.21-1.57,3.66-1.57c1.49,0,2.74,0.52,3.73,1.57
			c1.05,1,1.57,2.24,1.57,3.73v60.4h33.75v-60.4c0-1.49,0.52-2.74,1.57-3.73c1-1.05,2.21-1.57,3.66-1.57c1.49,0,2.74,0.52,3.73,1.57
			c1.05,1,1.57,2.24,1.57,3.73v93.55c0,1.44-0.52,2.66-1.57,3.66c-1,1.05-2.24,1.57-3.73,1.57c-1.44,0-2.66-0.52-3.66-1.57
			c-1.04-1-1.57-2.21-1.57-3.66V998.5h-33.75v22.62c0,1.44-0.52,2.66-1.57,3.66c-1,1.05-2.24,1.57-3.73,1.57
			c-1.44,0-2.66-0.52-3.66-1.57c-1.05-1-1.57-2.21-1.57-3.66V927.57z"/>
		<path d="M817.27,920.48c8.51,0,15.78,3.01,21.8,9.03c6.02,6.02,9.03,13.29,9.03,21.8v1.34c0,1.44-0.5,2.66-1.49,3.66
			c-1.04,1.05-2.29,1.57-3.73,1.57c-1.44,0-2.69-0.52-3.73-1.57c-1.05-1-1.57-2.21-1.57-3.66v-1.34c0-5.57-1.97-10.35-5.9-14.33
			c-3.98-3.98-8.79-5.97-14.41-5.97c-5.58,0-10.35,1.99-14.33,5.97c-3.98,3.98-5.97,8.76-5.97,14.33v45.84
			c0,5.62,1.99,10.43,5.97,14.41c3.98,3.98,8.76,5.97,14.33,5.97c5.62,0,10.43-1.99,14.41-5.97c3.93-3.98,5.9-8.79,5.9-14.41v-1.27
			c0-1.44,0.52-2.69,1.57-3.73c1.05-1.04,2.29-1.57,3.73-1.57c1.44,0,2.69,0.52,3.73,1.57c1,1.05,1.49,2.29,1.49,3.73v1.27
			c0,8.51-3.01,15.78-9.03,21.8c-6.02,6.02-13.29,9.03-21.8,9.03c-8.51,0-15.78-3.01-21.8-9.03c-6.02-6.02-9.03-13.29-9.03-21.8
			v-45.84c0-8.51,3.01-15.78,9.03-21.8C801.5,923.49,808.76,920.48,817.27,920.48z"/>
	</g>
	<line fill="none" stroke="#000000" stroke-width="2" x1="310.27" y1="1051.79" x2="1185.98" y2="1051.79"/>
	<circle fill="none" stroke="#000000" stroke-width="4" cx="745.14" cy="750" r="646.09"/>
	<g>
		<path d="M612.15,565.33c-29.9,20.91-63.63,37.32-99.4,47.17c-3.93,1.08-8.08-0.68-10.08-4.23
			c-54.94-97.68-78.64-200.05-78.63-306.96c0-3.12,2.55-5.65,5.67-5.65h110.72c5.08,0,9.22,4.06,9.33,9.14
			c2,95.09,24.79,176.6,65.49,246.41C618.05,556.01,616.71,562.14,612.15,565.33z"/>
		<path fill="#BF7025" d="M727.34,417.76c-14.02,42.8-42.12,84.33-79.3,118.68c-38.92-66.19-59.68-143.96-62.35-233.3
			c-0.12-4.09,3.15-7.48,7.24-7.48h111.54c3.09,0,5.64,2.44,5.75,5.52c1.36,39.11,7.07,74.25,17.14,105.44
			C728.53,410.24,728.52,414.14,727.34,417.76z"/>
		<path d="M913.77,304.89c-4.58,196.18-116.03,362.28-296.62,441.89c-5.07,2.23-11,0.99-14.76-3.07
			c-28.48-30.8-53.16-62.12-74.31-93.96c-1.1-1.65-0.34-3.89,1.52-4.56c164.89-60.01,248.91-175.37,257.69-342.23
			c0.22-4.09,3.59-7.29,7.69-7.29h109.77C909.81,295.65,913.89,299.83,913.77,304.89z"/>
		<path fill="#BF7025" d="M1074.96,305.77c-5.21,177.07-67.47,322.52-180.14,440.04c-2.58,2.69-6.56,3.46-9.99,2
			c-44.31-18.95-79.43-39.28-105.37-60.98c97.47-94.3,165.05-213.01,170.11-382.75c0.14-4.69,3.99-8.42,8.68-8.42h106.89
			C1070.68,295.65,1075.12,300.24,1074.96,305.77z"/>
	</g>
</g>
</svg>
